{
  "accessors": [
    {
      "bufferView": 2,
      "componentType": 5126,
      "count": 65532,
      "max": [
        196.2371826171875,
        -8.076424598693848,
        -1051.115966796875
      ],
      "min": [
        -192.81201171875,
        -179.5301513671875,
        -1664.290283203125
      ],
      "type": "VEC3"
    },
    {
      "bufferView": 2,
      "byteOffset": 786384,
      "componentType": 5126,
      "count": 65532,
      "max": [
        1.0,
        0.9999996423721313,
        0.9999298453330994
      ],
      "min": [
        -0.9999996423721313,
        -0.9999998807907104,
        -0.999992847442627
      ],
      "type": "VEC3"
    },
    {
      "bufferView": 1,
      "componentType": 5126,
      "count": 65532,
      "max": [
        1.2757710218429565,
        1.9714930057525635
      ],
      "min": [
        0.7654190063476563,
        1.2996599674224854
      ],
      "type": "VEC2"
    },
    {
      "bufferView": 0,
      "componentType": 5125,
      "count": 370278,
      "type": "SCALAR"
    },
    {
      "bufferView": 2,
      "byteOffset": 1572768,
      "componentType": 5126,
      "count": 65532,
      "max": [
        302.25982666015625,
        90.02058410644531,
        -1075.6983642578125
      ],
      "min": [
        -299.9200134277344,
        -179.74392700195313,
        -1675.332763671875
      ],
      "type": "VEC3"
    },
    {
      "bufferView": 2,
      "byteOffset": 2359152,
      "componentType": 5126,
      "count": 65532,
      "max": [
        0.9999992251396179,
        0.9999951124191284,
        0.9999983310699463
      ],
      "min": [
        -0.9999951124191284,
        -0.9999989867210388,
        -0.999984622001648
      ],
      "type": "VEC3"
    },
    {
      "bufferView": 1,
      "byteOffset": 524256,
      "componentType": 5126,
      "count": 65532,
      "max": [
        1.0104190111160278,
        2.377639055252075
      ],
      "min": [
        -0.7193490266799927,
        -0.11520499736070633
      ],
      "type": "VEC2"
    },
    {
      "bufferView": 0,
      "byteOffset": 1481112,
      "componentType": 5125,
      "count": 360492,
      "type": "SCALAR"
    },
    {
      "bufferView": 2,
      "byteOffset": 3145536,
      "componentType": 5126,
      "count": 65532,
      "max": [
        292.9559020996094,
        89.89900970458984,
        -1052.814208984375
      ],
      "min": [
        -290.38958740234375,
        -178.50897216796875,
        -1665.561767578125
      ],
      "type": "VEC3"
    },
    {
      "bufferView": 2,
      "byteOffset": 3931920,
      "componentType": 5126,
      "count": 65532,
      "max": [
        0.9999950528144836,
        0.9999990463256836,
        0.9999891519546509
      ],
      "min": [
        -0.9999973177909851,
        -0.9999947547912598,
        -0.9994035363197327
      ],
      "type": "VEC3"
    },
    {
      "bufferView": 1,
      "byteOffset": 1048512,
      "componentType": 5126,
      "count": 65532,
      "max": [
        1.0134470462799072,
        2.3678770065307617
      ],
      "min": [
        -0.7193490266799927,
        -0.11520499736070633
      ],
      "type": "VEC2"
    },
    {
      "bufferView": 0,
      "byteOffset": 2923080,
      "componentType": 5125,
      "count": 362037,
      "type": "SCALAR"
    },
    {
      "bufferView": 2,
      "byteOffset": 4718304,
      "componentType": 5126,
      "count": 4999,
      "max": [
        195.2762908935547,
        87.61376953125,
        -1051.103271484375
      ],
      "min": [
        -175.6524200439453,
        -178.50897216796875,
        -1662.4554443359375
      ],
      "type": "VEC3"
    },
    {
      "bufferView": 2,
      "byteOffset": 4778292,
      "componentType": 5126,
      "count": 4999,
      "max": [
        0.9976454377174377,
        0.9983209371566772,
        0.9999666810035706
      ],
      "min": [
        -0.9999921917915344,
        -0.9928046464920044,
        -0.9997565746307373
      ],
      "type": "VEC3"
    },
    {
      "bufferView": 1,
      "byteOffset": 1572768,
      "componentType": 5126,
      "count": 4999,
      "max": [
        1.0134470462799072,
        1.9714930057525635
      ],
      "min": [
        -0.20040400326251984,
        1.2996599674224854
      ],
      "type": "VEC2"
    },
    {
      "bufferView": 0,
      "byteOffset": 4371228,
      "componentType": 5125,
      "count": 27033,
      "type": "SCALAR"
    }
  ],
  "asset": {
    "extras": {
      "author": "alakamikaze111 (https://sketchfab.com/alakamikaze111)",
      "license": "CC-BY-4.0 (http://creativecommons.org/licenses/by/4.0/)",
      "source": "https://sketchfab.com/3d-models/tshirt-e6b35ba01c4949e29472ce65abe23754",
      "title": "Tshirt"
    },
    "generator": "Sketchfab-15.59.0",
    "version": "2.0"
  },
  "bufferViews": [
    {
      "buffer": 0,
      "byteLength": 4479360,
      "name": "floatBufferViews",
      "target": 34963
    },
    {
      "buffer": 0,
      "byteLength": 1612760,
      "byteOffset": 4479360,
      "byteStride": 8,
      "name": "floatBufferViews",
      "target": 34962
    },
    {
      "buffer": 0,
      "byteLength": 4838280,
      "byteOffset": 6092120,
      "byteStride": 12,
      "name": "floatBufferViews",
      "target": 34962
    }
  ],
  "buffers": [
    {
      "byteLength": 10930400,
      "uri": "scene.bin"
    }
  ],
  "materials": [
    {
      "doubleSided": true,
      "name": "FABRIC_1_FRONT_4193",
      "pbrMetallicRoughness": {
        "metallicFactor": 0.0,
        "roughnessFactor": 0.821229
      }
    }
  ],
  "meshes": [
    {
      "name": "Object_0",
      "primitives": [
        {
          "attributes": {
            "NORMAL": 1,
            "POSITION": 0,
            "TEXCOORD_0": 2
          },
          "indices": 3,
          "material": 0,
          "mode": 4
        }
      ]
    },
    {
      "name": "Object_1",
      "primitives": [
        {
          "attributes": {
            "NORMAL": 5,
            "POSITION": 4,
            "TEXCOORD_0": 6
          },
          "indices": 7,
          "material": 0,
          "mode": 4
        }
      ]
    },
    {
      "name": "Object_2",
      "primitives": [
        {
          "attributes": {
            "NORMAL": 9,
            "POSITION": 8,
            "TEXCOORD_0": 10
          },
          "indices": 11,
          "material": 0,
          "mode": 4
        }
      ]
    },
    {
      "name": "Object_3",
      "primitives": [
        {
          "attributes": {
            "NORMAL": 13,
            "POSITION": 12,
            "TEXCOORD_0": 14
          },
          "indices": 15,
          "material": 0,
          "mode": 4
        }
      ]
    }
  ],
  "nodes": [
    {
      "children": [
        1
      ],
      "matrix": [
        1.0,
        0.0,
        0.0,
        0.0,
        0.0,
        2.220446049250313e-16,
        -1.0,
        0.0,
        0.0,
        1.0,
        2.220446049250313e-16,
        0.0,
        0.0,
        0.0,
        0.0,
        1.0
      ],
      "name": "Sketchfab_model"
    },
    {
      "children": [
        2
      ],
      "name": "root"
    },
    {
      "children": [
        3
      ],
      "matrix": [
        1.0,
        0.0,
        0.0,
        0.0,
        0.0,
        2.220446049250313e-16,
        1.0,
        0.0,
        0.0,
        -1.0,
        2.220446049250313e-16,
        0.0,
        0.0,
        0.0,
        0.0,
        1.0
      ],
      "name": "GLTF_SceneRootNode"
    },
    {
      "children": [
        4,
        5,
        6,
        7
      ],
      "matrix": [
        0.039488013833761215,
        0.0,
        0.0,
        0.0,
        0.0,
        -6.6571814622282925e-09,
        0.03948801383376065,
        0.0,
        0.0,
        -0.03948801383376065,
        -6.6571814622282925e-09,
        0.0,
        0.0,
        0.0,
        0.0,
        1.0
      ],
      "name": "t-shirt.002_2"
    },
    {
      "mesh": 0,
      "name": "Object_4"
    },
    {
      "mesh": 1,
      "name": "Object_5"
    },
    {
      "mesh": 2,
      "name": "Object_6"
    },
    {
      "mesh": 3,
      "name": "Object_7"
    }
  ],
  "scene": 0,
  "scenes": [
    {
      "name": "Sketchfab_Scene",
      "nodes": [
        0
      ]
    }
  ]
}
